<svg viewBox="0 0 486 38" fill="none" xmlns="http://www.w3.org/2000/svg"><path fill-rule="evenodd" clip-rule="evenodd" d="M290.856 17.266c-64.678.668-129.388 3.32-193.784 8.057-30.616 2.254-66.17 1.972-95.864 9.654-1.48.386-1.198 1.546-1.166 1.662.064.238.333 1.027 1.512 1.066.128.006 1.03-.105 1.377-.144 8.768-.994 17.505-2.153 26.28-3.092 30.295-3.253 60.68-5.71 91.111-7.864 40.39-2.861 81.126-4.385 121.625-5.578 22.168-.652 44.867.215 67.106-1.132 8.166-.039 16.332-.044 24.499-.022 34.139.105 68.239 1.22 102.32 2.75 10.959.491 19.318 1.022 30.046 1.38 4.074.139 10.536.233 15.033.293.659.011 2.344.022 3.042.028.07.01.141.01.218.01.269 0 .397-.016.422-.016 1.525-.193 1.384-1.436 1.346-1.623-.007-.039-.237-1.088-1.55-1.127-.314-.011-2.562-.022-3.427-.033-4.471-.06-10.908-.155-14.962-.287-10.709-.36-19.062-.89-30.001-1.38-34.133-1.53-68.284-2.652-102.474-2.756-4.177-.011-8.359-.017-12.535-.012-.141-.314-.455-.668-1.147-.822-.646-.144-5.277-.271-7.064-.398-13.227-.939-12.836-.895-27.388-1.662-22.04-1.166-25.396-1.43-48.32-1.922-41.639-.895-83.297-.823-124.943-.735-20.56.05-42.574 1.248-63.448-.988 6.88-.696 13.784-1.204 20.676-1.784 23.532-1.977 47.083-3.203 70.711-4.065 56.678-2.065 113.446-2.888 170.105-.071-12.061.099-24.115.33-36.176.48-49.094.619-98.663.155-147.655 3.363-.877.061-1.537.724-1.473 1.48.064.762.839 1.331 1.717 1.276 48.928-3.209 98.426-2.74 147.456-3.358 18.216-.226 36.425-.635 54.641-.513 6.252.044 12.503.243 18.754.309 1.236.017 4.42.226 4.875.138 1.005-.193 1.223-.834 1.287-1.149.032-.187.134-1.27-1.403-1.656-10.491-2.64-29.854-2.519-40.05-3.038-57.357-2.927-114.83-2.11-172.212-.022-23.686.867-47.295 2.099-70.891 4.081-8.243.69-16.506 1.287-24.717 2.204-1.326.149-4.304.364-5.745.59-.603.095-1.038.227-1.23.321-.75.364-.884.895-.884 1.254-.007.276.128 1.248 1.697 1.513 23.91 4.037 49.927 2.452 73.972 2.397 41.62-.089 83.246-.16 124.859.734 22.866.492 26.21.751 48.205 1.916 2.171.11 4.009.21 5.617.293Z" fill="#fc00ff"></path></svg>